<svg viewBox="0 0 600 153" xmlns="http://www.w3.org/2000/svg">
  <!-- Mark (vectorized from original) -->
  <path fill="#449f53" fill-rule="evenodd" d="M26.77 139.16 c-0.43 -0.27 -0.72 -0.86 -0.61 -1.27 0.04 -0.16 0.39 -0.78 0.80 -1.40 1.46 -2.22 3.15 -5.64 5.27 -10.62 1.70 -4.02 2.12 -5.10 2.04 -5.23 -0.05 -0.07 -0.50 -0.42 -1.02 -0.76 -4.12 -2.77 -8.31 -6.50 -10.73 -9.54 -4.41 -5.53 -7.58 -13.03 -8.61 -20.41 -0.27 -1.89 -0.38 -6.76 -0.20 -8.70 1.02 -10.83 5.95 -20.62 14.79 -29.41 2.77 -2.76 6.13 -5.73 9.50 -8.40 1.70 -1.35 7.16 -5.46 8.52 -6.41 1.79 -1.26 8.81 -5.96 9.70 -6.50 0.48 -0.29 1.45 -0.91 2.15 -1.37 1.40 -0.93 1.43 -0.96 4.89 -3.14 5.39 -3.41 7.09 -4.47 7.91 -4.98 0.48 -0.28 1.05 -0.65 1.29 -0.80 0.23 -0.15 1.04 -0.64 1.78 -1.09 0.75 -0.45 1.96 -1.21 2.72 -1.69 0.76 -0.49 1.46 -0.88 1.56 -0.88 0.10 0 0.22 -0.05 0.26 -0.12 0.13 -0.21 0.99 -0.13 1.31 0.11 0.45 0.36 0.64 0.91 1.43 4.12 4.29 17.30 7.28 34.88 8.12 47.74 0.21 3.20 0.09 8.83 -0.25 11.23 -1.29 9.44 -4.62 17.04 -10.76 24.51 -1.75 2.12 -6.61 6.74 -7.39 7.04 -0.25 0.10 -2.04 1.34 -2.60 1.80 -0.26 0.21 -0.76 0.54 -1.14 0.74 -0.38 0.18 -0.92 0.53 -1.20 0.75 -0.28 0.23 -0.59 0.42 -0.67 0.42 -0.20 0 -2.84 1.39 -3.67 1.91 -0.34 0.23 -0.69 0.42 -0.76 0.42 -0.07 0 -0.23 0.05 -0.36 0.11 -0.11 0.06 -0.65 0.29 -1.19 0.51 -0.54 0.22 -1.10 0.50 -1.26 0.61 -0.16 0.12 -0.58 0.31 -0.92 0.43 -0.36 0.11 -0.83 0.31 -1.07 0.42 -0.23 0.12 -0.98 0.39 -1.66 0.61 -0.67 0.22 -1.31 0.47 -1.41 0.55 -0.10 0.09 -0.56 0.28 -1.04 0.43 -0.85 0.27 -1.02 0.33 -1.69 0.60 -0.18 0.07 -0.43 0.13 -0.53 0.13 -0.10 0 -0.40 0.11 -0.70 0.23 -0.28 0.12 -0.86 0.31 -1.29 0.38 -0.42 0.09 -0.80 0.21 -0.83 0.26 -0.04 0.06 -0.16 0.11 -0.28 0.11 -0.56 0 -2.08 0.72 -2.73 1.30 -0.25 0.22 -0.63 0.49 -0.82 0.60 -0.21 0.10 -1.03 0.77 -1.81 1.50 -1.37 1.23 -2.38 2.24 -9.11 9.23 -3.57 3.69 -4.12 4.17 -4.82 4.17 -0.28 0 -0.69 -0.10 -0.89 -0.23z m19.65 -31.42 c2.28 -2.59 4.82 -5.47 5.63 -6.41 3.04 -3.54 17.81 -21.42 21.72 -26.30 l0.64 -0.80 -7.77 -0.06 c-7.42 -0.06 -7.78 -0.07 -8.03 -0.29 -0.16 -0.15 -0.26 -0.38 -0.26 -0.64 0 -0.22 0.44 -1.94 0.97 -3.81 1.41 -4.98 3.02 -10.75 4.43 -15.97 0.67 -2.53 1.54 -5.70 1.91 -7.06 0.70 -2.59 0.72 -2.75 0.55 -2.75 -0.31 0 -13.02 14.50 -17.83 20.33 -1.36 1.66 -3.08 3.73 -3.81 4.61 -1.13 1.37 -4.99 6.08 -7.60 9.27 -0.40 0.50 -1.86 2.29 -3.22 3.96 -1.37 1.68 -2.49 3.10 -2.49 3.16 0 0.06 3.40 0.11 8.70 0.11 l8.72 0 0.29 0.31 c0.20 0.18 0.31 0.44 0.31 0.66 0 0.21 -0.50 2.12 -1.12 4.27 -2.94 10.35 -5.99 21.50 -5.99 21.98 0 0.06 0.02 0.12 0.06 0.12 0.02 0 1.91 -2.11 4.19 -4.68z"/>
  <!-- Wordmark — Ubuntu Bold, outlined paths (white, for dark backgrounds) -->
  <path fill="#FFFFFF" d="M165.396 108L128.080 108L128.080 55.332L163.648 55.332L163.648 65.288L139.936 65.288L139.936 75.624L160.988 75.624L160.988 85.352L139.936 85.352L139.936 98.044L165.396 98.044 M172.376 108L172.376 69.392Q175.264 68.556 179.824 67.834Q184.384 67.112 189.400 67.112Q194.492 67.112 197.874 68.442Q201.256 69.772 203.232 72.204Q205.208 74.636 206.044 77.980Q206.880 81.324 206.880 85.428L206.880 108L195.556 108L195.556 86.796Q195.556 81.324 194.112 79.044Q192.668 76.764 188.716 76.764Q187.500 76.764 186.132 76.878Q184.764 76.992 183.700 77.144L183.700 108 M214.240 88.316Q214.240 82.996 215.874 79.006Q217.508 75.016 220.168 72.356Q222.828 69.696 226.286 68.328Q229.744 66.960 233.392 66.960Q241.904 66.960 246.844 72.166Q251.784 77.372 251.784 87.480Q251.784 88.468 251.708 89.646Q251.632 90.824 251.556 91.736L225.868 91.736Q226.248 95.232 229.136 97.284Q232.024 99.336 236.888 99.336Q240.004 99.336 243.006 98.766Q246.008 98.196 247.908 97.360L249.428 106.556Q248.516 107.012 246.996 107.468Q245.476 107.924 243.614 108.266Q241.752 108.608 239.624 108.836Q237.496 109.064 235.368 109.064Q229.972 109.064 225.982 107.468Q221.992 105.872 219.370 103.098Q216.748 100.324 215.494 96.524Q214.240 92.724 214.240 88.316M225.868 83.984L240.840 83.984Q240.764 82.540 240.346 81.172Q239.928 79.804 239.054 78.740Q238.180 77.676 236.850 76.992Q235.520 76.308 233.544 76.308Q231.644 76.308 230.276 76.954Q228.908 77.600 227.996 78.664Q227.084 79.728 226.590 81.134Q226.096 82.540 225.868 83.984 M285.516 68.708L283.616 78.056Q282.096 77.676 280.044 77.258Q277.992 76.840 275.636 76.840Q274.572 76.840 273.090 77.030Q271.608 77.220 270.848 77.448L270.848 108L259.524 108L259.524 70.152Q262.564 69.088 266.706 68.138Q270.848 67.188 275.940 67.188Q276.852 67.188 278.144 67.302Q279.436 67.416 280.728 67.606Q282.020 67.796 283.312 68.062Q284.604 68.328 285.516 68.708 M300.248 86.720Q300.248 96.220 307.924 96.220Q309.672 96.220 311.192 95.764Q312.712 95.308 313.776 94.700L313.776 76.612Q312.940 76.460 311.800 76.346Q310.660 76.232 309.140 76.232Q304.656 76.232 302.452 79.196Q300.248 82.160 300.248 86.720M325.100 69.392L325.100 102.984Q325.100 112.788 320.122 117.538Q315.144 122.288 304.732 122.288Q301.084 122.288 297.436 121.642Q293.788 120.996 290.672 119.932L292.648 110.432Q295.308 111.496 298.234 112.104Q301.160 112.712 304.884 112.712Q309.748 112.712 311.762 110.584Q313.776 108.456 313.776 105.112L313.776 103.668Q311.952 104.504 310.014 104.922Q308.076 105.340 305.796 105.340Q297.512 105.340 293.104 100.438Q288.696 95.536 288.696 86.720Q288.696 82.312 290.064 78.702Q291.432 75.092 294.054 72.508Q296.676 69.924 300.476 68.518Q304.276 67.112 309.064 67.112Q311.116 67.112 313.282 67.302Q315.448 67.492 317.576 67.796Q319.704 68.100 321.642 68.518Q323.580 68.936 325.100 69.392 M358.528 68.024L370.232 68.024Q366.812 79.576 363.088 89.684Q359.364 99.792 354.956 109.292Q353.360 112.712 351.764 115.106Q350.168 117.500 348.268 119.058Q346.368 120.616 343.974 121.338Q341.580 122.060 338.388 122.060Q335.728 122.060 333.486 121.566Q331.244 121.072 329.800 120.464L331.776 111.420Q333.524 112.028 334.892 112.256Q336.260 112.484 337.780 112.484Q340.820 112.484 342.454 110.850Q344.088 109.216 345.228 106.328Q341.352 98.728 337.476 89.266Q333.600 79.804 330.180 68.024L342.188 68.024Q342.948 70.988 343.974 74.446Q345 77.904 346.140 81.438Q347.280 84.972 348.458 88.316Q349.636 91.660 350.700 94.396Q351.688 91.660 352.752 88.316Q353.816 84.972 354.842 81.438Q355.868 77.904 356.818 74.446Q357.768 70.988 358.528 68.024 M390.436 98.956Q392.944 98.956 394.578 98.538Q396.212 98.120 397.200 97.398Q398.188 96.676 398.568 95.688Q398.948 94.700 398.948 93.484Q398.948 90.900 396.516 89.190Q394.084 87.480 388.156 85.504Q385.572 84.592 382.988 83.414Q380.404 82.236 378.352 80.450Q376.300 78.664 375.008 76.118Q373.716 73.572 373.716 69.924Q373.716 66.276 375.084 63.350Q376.452 60.424 378.960 58.372Q381.468 56.320 385.040 55.218Q388.612 54.116 393.096 54.116Q398.416 54.116 402.292 55.256Q406.168 56.396 408.676 57.764L405.256 67.112Q403.052 65.972 400.354 65.098Q397.656 64.224 393.856 64.224Q389.600 64.224 387.738 65.402Q385.876 66.580 385.876 69.012Q385.876 70.456 386.560 71.444Q387.244 72.432 388.498 73.230Q389.752 74.028 391.386 74.674Q393.020 75.320 394.996 76.004Q399.100 77.524 402.140 79.006Q405.180 80.488 407.194 82.464Q409.208 84.440 410.196 87.100Q411.184 89.760 411.184 93.560Q411.184 100.932 406.016 104.998Q400.848 109.064 390.436 109.064Q386.940 109.064 384.128 108.646Q381.316 108.228 379.150 107.620Q376.984 107.012 375.426 106.328Q373.868 105.644 372.804 105.036L376.148 95.612Q378.504 96.904 381.962 97.930Q385.420 98.956 390.436 98.956 M416.644 88.316Q416.644 82.996 418.278 79.006Q419.912 75.016 422.572 72.356Q425.232 69.696 428.690 68.328Q432.148 66.960 435.796 66.960Q444.308 66.960 449.248 72.166Q454.188 77.372 454.188 87.480Q454.188 88.468 454.112 89.646Q454.036 90.824 453.960 91.736L428.272 91.736Q428.652 95.232 431.540 97.284Q434.428 99.336 439.292 99.336Q442.408 99.336 445.410 98.766Q448.412 98.196 450.312 97.360L451.832 106.556Q450.920 107.012 449.400 107.468Q447.880 107.924 446.018 108.266Q444.156 108.608 442.028 108.836Q439.900 109.064 437.772 109.064Q432.376 109.064 428.386 107.468Q424.396 105.872 421.774 103.098Q419.152 100.324 417.898 96.524Q416.644 92.724 416.644 88.316M428.272 83.984L443.244 83.984Q443.168 82.540 442.750 81.172Q442.332 79.804 441.458 78.740Q440.584 77.676 439.254 76.992Q437.924 76.308 435.948 76.308Q434.048 76.308 432.680 76.954Q431.312 77.600 430.400 78.664Q429.488 79.728 428.994 81.134Q428.500 82.540 428.272 83.984 M461.928 108L461.928 69.392Q464.816 68.556 469.376 67.834Q473.936 67.112 478.952 67.112Q484.044 67.112 487.426 68.442Q490.808 69.772 492.784 72.204Q494.760 74.636 495.596 77.980Q496.432 81.324 496.432 85.428L496.432 108L485.108 108L485.108 86.796Q485.108 81.324 483.664 79.044Q482.220 76.764 478.268 76.764Q477.052 76.764 475.684 76.878Q474.316 76.992 473.252 77.144L473.252 108 M517.168 99.868Q520.284 99.868 521.576 99.260Q522.868 98.652 522.868 96.904Q522.868 95.536 521.196 94.510Q519.524 93.484 516.104 92.192Q513.444 91.204 511.278 90.140Q509.112 89.076 507.592 87.594Q506.072 86.112 505.236 84.060Q504.400 82.008 504.400 79.120Q504.400 73.496 508.580 70.228Q512.760 66.960 520.056 66.960Q523.704 66.960 527.048 67.606Q530.392 68.252 532.368 69.012L530.392 77.828Q528.416 77.144 526.098 76.612Q523.780 76.080 520.892 76.080Q515.572 76.080 515.572 79.044Q515.572 79.728 515.800 80.260Q516.028 80.792 516.712 81.286Q517.396 81.780 518.574 82.350Q519.752 82.920 521.576 83.604Q525.300 84.972 527.732 86.302Q530.164 87.632 531.570 89.190Q532.976 90.748 533.546 92.648Q534.116 94.548 534.116 97.056Q534.116 102.984 529.670 106.024Q525.224 109.064 517.092 109.064Q511.772 109.064 508.238 108.152Q504.704 107.240 503.336 106.632L505.236 97.436Q508.124 98.576 511.164 99.222Q514.204 99.868 517.168 99.868 M539.652 88.316Q539.652 82.996 541.286 79.006Q542.920 75.016 545.580 72.356Q548.240 69.696 551.698 68.328Q555.156 66.960 558.804 66.960Q567.316 66.960 572.256 72.166Q577.196 77.372 577.196 87.480Q577.196 88.468 577.120 89.646Q577.044 90.824 576.968 91.736L551.280 91.736Q551.660 95.232 554.548 97.284Q557.436 99.336 562.300 99.336Q565.416 99.336 568.418 98.766Q571.420 98.196 573.320 97.360L574.840 106.556Q573.928 107.012 572.408 107.468Q570.888 107.924 569.026 108.266Q567.164 108.608 565.036 108.836Q562.908 109.064 560.780 109.064Q555.384 109.064 551.394 107.468Q547.404 105.872 544.782 103.098Q542.160 100.324 540.906 96.524Q539.652 92.724 539.652 88.316M551.280 83.984L566.252 83.984Q566.176 82.540 565.758 81.172Q565.340 79.804 564.466 78.740Q563.592 77.676 562.262 76.992Q560.932 76.308 558.956 76.308Q557.056 76.308 555.688 76.954Q554.320 77.600 553.408 78.664Q552.496 79.728 552.002 81.134Q551.508 82.540 551.280 83.984"/>
</svg>